<svg width="92" height="20" viewBox="0 0 92 20" fill="none" xmlns="http://www.w3.org/2000/svg">
<path d="M8.05499 4.90525V5.9243C7.3956 5.10507 6.4365 4.62551 5.1377 4.62551C2.30034 4.62551 0.222275 6.94336 0.222275 9.70079C0.222275 12.4582 2.30034 14.7761 5.1377 14.7761C6.4365 14.7761 7.3956 14.2965 8.05499 13.4773V14.3964C8.05499 15.8151 7.19579 16.5344 5.79709 16.5344C4.47832 16.5344 3.89886 15.975 3.51921 15.2756L0.961587 16.7542C1.88073 18.3927 3.61912 19.172 5.69718 19.172C8.35471 19.172 10.9723 17.7533 10.9723 14.3964V4.90525H8.05499ZM5.63724 12.0186C4.21856 12.0186 3.21949 11.0795 3.21949 9.70079C3.21949 8.32207 4.21856 7.38295 5.63724 7.38295C7.05592 7.38295 8.05499 8.32207 8.05499 9.70079C8.05499 11.0795 7.05592 12.0186 5.63724 12.0186Z" fill="#2C3041"/>
<path d="M15.8487 11.0995H22.9421C23.022 10.7198 23.062 10.3202 23.062 9.90061C23.062 6.88341 20.904 4.62551 17.9867 4.62551C14.8296 4.62551 12.6716 6.92337 12.6716 9.90061C12.6716 12.8778 14.7897 15.1757 18.2065 15.1757C20.1047 15.1757 21.5833 14.4764 22.5624 13.1176L20.1647 11.7389C19.765 12.1785 19.0657 12.4982 18.2465 12.4982C17.1475 12.4982 16.2283 12.1385 15.8487 11.0995ZM15.7887 8.86157C16.0685 7.84252 16.8278 7.28304 17.9667 7.28304C18.8659 7.28304 19.765 7.70265 20.0847 8.86157H15.7887Z" fill="#2C3041"/>
<path d="M30.3238 7.78258V4.90525H28.2657V2.10785L25.2685 3.00702V4.90525H23.67V7.78258H25.2685V11.3193C25.2685 14.1167 26.4075 15.2956 30.3238 14.896V12.1785C29.005 12.2584 28.2657 12.1785 28.2657 11.3193V7.78258H30.3238Z" fill="#2C3041"/>
<path d="M35.2132 6.6836V4.90525H32.216V14.896H35.2132V10.3802C35.2132 8.402 36.9715 7.90246 38.2104 8.10228V4.70544C36.9516 4.70544 35.6128 5.34484 35.2132 6.6836Z" fill="#2C3041"/>
<path d="M41.9962 11.0995H49.0896C49.1696 10.7198 49.2095 10.3202 49.2095 9.90061C49.2095 6.88341 47.0515 4.62551 44.1343 4.62551C40.9772 4.62551 38.8192 6.92337 38.8192 9.90061C38.8192 12.8778 40.9372 15.1757 44.354 15.1757C46.2523 15.1757 47.7309 14.4764 48.71 13.1176L46.3122 11.7389C45.9126 12.1785 45.2132 12.4982 44.394 12.4982C43.295 12.4982 42.3759 12.1385 41.9962 11.0995ZM41.9363 8.86157C42.216 7.84252 42.9753 7.28304 44.1143 7.28304C45.0134 7.28304 45.9126 7.70265 46.2323 8.86157H41.9363Z" fill="#2C3041"/>
<path d="M56.8933 4.90525L54.8153 11.2394L52.7372 4.90525H49.4203L53.1168 14.896H56.5137L60.2102 4.90525H56.8933Z" fill="#2C3041"/>
<path d="M62.8086 4.02607C63.7877 4.02607 64.6069 3.20683 64.6069 2.22774C64.6069 1.24865 63.7877 0.429413 62.8086 0.429413C61.8295 0.429413 61.0103 1.24865 61.0103 2.22774C61.0103 3.20683 61.8295 4.02607 62.8086 4.02607ZM61.31 14.896H64.3072V4.90525H61.31V14.896Z" fill="#2C3041"/>
<path d="M69.178 11.0995H76.2714C76.3513 10.7198 76.3913 10.3202 76.3913 9.90061C76.3913 6.88341 74.2333 4.62551 71.316 4.62551C68.1589 4.62551 66.0009 6.92337 66.0009 9.90061C66.0009 12.8778 68.119 15.1757 71.5358 15.1757C73.434 15.1757 74.9127 14.4764 75.8918 13.1176L73.494 11.7389C73.0944 12.1785 72.395 12.4982 71.5758 12.4982C70.4768 12.4982 69.5576 12.1385 69.178 11.0995ZM69.1181 8.86157C69.3978 7.84252 70.1571 7.28304 71.296 7.28304C72.1952 7.28304 73.0944 7.70265 73.4141 8.86157H69.1181Z" fill="#2C3041"/>
<path d="M88.6908 4.90525L87.2521 10.2603L85.6936 4.90525H82.8962L81.3376 10.2603L79.899 4.90525H76.7019L79.899 14.896H82.6964L84.2949 9.56092L85.8934 14.896H88.6908L91.8878 4.90525H88.6908Z" fill="#2C3041"/>
</svg>
